<?xml version="1.0" encoding="UTF-8"?>
<svg version="1.1" xmlns="http://www.w3.org/2000/svg" width="512" height="512">
<path d="M0 0 C9.74160832 7.33783484 17.07226835 17.75282596 19 30 C19.1151461 32.53373292 19.17843767 35.02716069 19.171875 37.56030273 C19.17024353 38.30128173 19.16861206 39.04226072 19.16693115 39.80569363 C19.07217125 48.92805968 18.15807704 57.96466448 17.25 67.03515625 C17.06992927 68.89409143 16.89058104 70.75309673 16.71191406 72.61216736 C16.2456018 77.444333 15.76965234 82.27549952 15.29150391 87.10650635 C14.80295249 92.06065916 14.32377757 97.01571845 13.84375 101.97070312 C12.90486969 111.64803123 11.95577851 121.32432724 11 131 C12.58805668 128.78190236 14.17544081 126.5633285 15.76245117 124.34448242 C16.43011127 123.41215412 16.43011127 123.41215412 17.11125946 122.46099091 C20.92272858 117.13026869 24.63805758 111.7385693 28.3125 106.3125 C29.60532981 104.41006183 30.89830117 102.50771984 32.19140625 100.60546875 C32.82836426 99.66751465 33.46532227 98.72956055 34.12158203 97.76318359 C38.55600612 91.24007314 43.01681634 84.73499558 47.47558594 78.22851562 C48.99019758 76.01433 50.49951544 73.79661563 52.0078125 71.578125 C54.64729751 67.70140912 57.30995044 63.84179766 60 60 C60.63421875 59.09378906 61.2684375 58.18757813 61.921875 57.25390625 C69.17827647 47.38453453 78.88365472 40.88531748 90.984375 38.3828125 C106.98556565 36.35157327 121.51356417 39.7724741 134.625 49.125 C145.91048989 58.29321214 151.68105991 70.96787347 154 85 C155.32146563 99.08885665 150.86696343 111.21948954 142 122 C139.21476495 125.038831 136.3107975 127.94681357 133.3828125 130.84765625 C132.56682587 131.66318466 131.75083923 132.47871307 130.91012573 133.31895447 C129.19294406 135.03313095 127.47334864 136.74489254 125.75146484 138.4543457 C123.13452975 141.05303669 120.52567324 143.65962795 117.91796875 146.26757812 C116.24005378 147.94057613 114.56168334 149.61311748 112.8828125 151.28515625 C112.1117215 152.05513443 111.34063049 152.82511261 110.5461731 153.61842346 C106.41112723 157.71785873 102.18661029 161.6441551 97.77706909 165.44630432 C95.44357635 167.4864825 93.24624486 169.640934 91.0625 171.83984375 C90.23105469 172.67451172 89.39960938 173.50917969 88.54296875 174.36914062 C87.28419922 175.64047852 87.28419922 175.64047852 86 176.9375 C84.69482422 178.24944336 84.69482422 178.24944336 83.36328125 179.58789062 C81.23986351 181.72297549 79.11929021 183.86082058 77 186 C87.27446909 183.49969565 97.46679657 180.79079862 107.6302433 177.87316132 C112.3767975 176.51535462 117.13111449 175.18486453 121.88372517 173.84844589 C126.01157294 172.68608353 130.13655721 171.51497932 134.2565918 170.32519531 C179.7085709 157.21937901 179.7085709 157.21937901 196 166 C199.14579592 167.8312847 202.08714514 169.81965088 205 172 C206.546875 173.11375 206.546875 173.11375 208.125 174.25 C216.8619802 182.6071115 223.89904685 194.99208747 224.23828125 207.30859375 C224.60651515 224.2573056 221.6708397 238.14022265 209.6875 250.8125 C199.56175391 260.42941463 188.01973129 263.262285 174.4375 264.375 C173.14005859 264.48948486 171.84261719 264.60396973 170.50585938 264.72192383 C165.33916662 265.17203657 160.16975966 265.58681962 155 266 C153.77275208 266.09815002 152.54550415 266.19630005 151.28106689 266.29742432 C131.19021765 267.90159567 111.09590276 269.46054196 91 271 C96.08165555 273.33699797 101.16522171 275.66980433 106.25 278 C107.02598541 278.35570068 107.80197083 278.71140137 108.60147095 279.07788086 C117.63791618 283.21699682 126.68723389 287.32368396 135.77734375 291.34375 C136.5701474 291.69453613 137.36295105 292.04532227 138.17977905 292.40673828 C141.97233058 294.08328836 145.76722829 295.75426011 149.56542969 297.41796875 C156.70621483 300.55779383 163.77660229 303.8031187 170.76171875 307.27734375 C171.42133102 307.60428223 172.0809433 307.9312207 172.76054382 308.26806641 C185.4300992 314.6507409 193.35651669 323.36102874 197.9765625 336.8515625 C202.25120857 351.99259858 200.11446515 366.31049055 192.7890625 380.11328125 C185.19583489 392.36523585 173.69908763 400.98414523 159.7421875 404.58203125 C138.4747173 407.8236542 124.72861185 400.28529197 108 388 C104.66970895 385.52923828 101.35794036 383.03468631 98.05957031 380.52148438 C92.98541313 376.67490521 87.77507781 373.06474281 82.5 369.5 C75.67454677 364.88710645 69.02134236 360.10591191 62.4609375 355.12402344 C57.39883981 351.28067514 52.2497856 347.58398825 47 344 C46.731875 345.0725 46.46375 346.145 46.1875 347.25 C45.11635029 350.63257802 44.16523186 352.31867178 42 355 C43.47569726 358.1474724 44.95613554 361.29269139 46.4375 364.4375 C46.85837891 365.33533203 47.27925781 366.23316406 47.71289062 367.15820312 C48.11572266 368.01220703 48.51855469 368.86621094 48.93359375 369.74609375 C49.4913147 370.93223267 49.4913147 370.93223267 50.06030273 372.14233398 C50.86104789 373.96497994 50.86104789 373.96497994 52 375 C53.093125 374.979375 54.18625 374.95875 55.3125 374.9375 C60.36416185 375.02312139 60.36416185 375.02312139 63 377 C65.07805726 379.36468584 65.97169051 381.05246486 66.06640625 384.22265625 C65.5672517 390.48755523 65.5672517 390.48755523 63.3828125 392.4609375 C61.74193431 393.92552517 61.74193431 393.92552517 62.09765625 396.17578125 C64.17547189 402.67907436 66.75383822 409.58440904 71 415 C73.81191044 416.41225995 75.58342688 416.70129849 78.703125 416.63671875 C81 417 81 417 83.12890625 419.140625 C85.03361078 422.05136345 86.3945749 424.83630519 87.6875 428.0625 C88.31205078 429.59583984 88.31205078 429.59583984 88.94921875 431.16015625 C92.72400217 441.36189433 92.15172934 453.16919181 88.265625 463.25390625 C81.19848338 478.5878586 71.37665613 487.79452487 55.6640625 494.0546875 C43.41023012 498.40282157 27.70574028 497.33807101 16 492 C4.47274016 486.18236016 -4.52271067 477.20097829 -8.72870636 464.86226654 C-9.38489333 462.57926285 -9.98551452 460.28890467 -10.56542969 457.98535156 C-10.79034592 457.12254074 -11.01526215 456.25972992 -11.24699402 455.37077332 C-11.98081565 452.54626446 -12.7016203 449.71862106 -13.421875 446.890625 C-13.9311712 444.916071 -14.44113036 442.94168789 -14.95172119 440.96746826 C-16.01626057 436.84350763 -17.07469089 432.71804485 -18.12841797 428.59130859 C-19.4796068 423.30053847 -20.84309695 418.01303635 -22.21076584 412.72650528 C-23.26291971 408.65606583 -24.31007883 404.5843553 -25.35556793 400.5121994 C-25.85674885 398.56143221 -26.35913808 396.61097504 -26.86275482 394.66083527 C-27.56408123 391.940797 -28.25902854 389.21920961 -28.95214844 386.49707031 C-29.26532265 385.28917091 -29.26532265 385.28917091 -29.58482361 384.05686951 C-30.46726247 380.56557357 -31 377.62537533 -31 374 C-31.66 374 -32.32 374 -33 374 C-33.12420822 375.15118317 -33.24841644 376.30236633 -33.37638855 377.48843384 C-33.92102259 381.82281108 -34.87350032 385.9633793 -35.9777832 390.18505859 C-36.27560196 391.34777534 -36.27560196 391.34777534 -36.57943726 392.53398132 C-37.23144632 395.07348019 -37.89077738 397.61100567 -38.55078125 400.1484375 C-39.01084223 401.92902338 -39.47065146 403.70967432 -39.93022156 405.49038696 C-40.89274349 409.21485003 -41.85903631 412.93830965 -42.82788086 416.66113281 C-44.06297274 421.40868224 -45.28753474 426.15887423 -46.50910664 430.90991783 C-47.45588192 434.58650687 -48.40886365 438.2614662 -49.36360741 441.93599319 C-49.81730409 443.68558096 -50.26898625 445.43569251 -50.71853065 447.18635178 C-58.72209212 478.31141965 -58.72209212 478.31141965 -73 488 C-86.76391943 495.92756133 -100.95540301 498.28925386 -116.6171875 495.3125 C-131.42368966 490.69748634 -142.67055342 481.5799391 -150 468 C-153.38147424 460.68371937 -155.1891495 454.45290347 -155.25 446.375 C-155.2809375 445.38306641 -155.2809375 445.38306641 -155.3125 444.37109375 C-155.3935347 433.816324 -150.71084922 424.85159139 -146.10656738 415.59838867 C-144.40641165 412.18031659 -142.73209371 408.74959015 -141.0546875 405.3203125 C-140.7129248 404.62315125 -140.37116211 403.92598999 -140.01904297 403.20770264 C-136.66446373 396.34973949 -133.44508956 389.4336112 -130.25 382.5 C-124.61160869 370.27900164 -118.84363689 358.12408165 -113 346 C-118.94031544 349.90289146 -124.75839141 353.93615348 -130.5 358.125 C-136.47035483 362.45984547 -142.46341509 366.75786551 -148.5 371 C-154.45083685 375.18292506 -160.36084562 379.41820482 -166.25 383.6875 C-198.40236502 406.94233354 -198.40236502 406.94233354 -221 405 C-234.63844225 402.57957507 -246.60936282 394.89647867 -254.68359375 383.65625 C-262.59787286 371.18287245 -265.807131 357.51156679 -263.50390625 342.83984375 C-260.51687702 329.76104346 -254.28339177 318.45017913 -242.703125 311.15234375 C-236.43749529 307.51951057 -229.83318274 304.66849647 -223.19851685 301.79302979 C-219.2477615 300.07971513 -215.30730404 298.34308207 -211.3671875 296.60546875 C-210.53802322 296.24005981 -209.70885895 295.87465088 -208.85456848 295.49816895 C-196.89083448 290.20663107 -185.04772589 284.65078572 -173.19311523 279.12036133 C-171.92617325 278.52997322 -171.92617325 278.52997322 -170.63363647 277.92765808 C-169.05447327 277.19143419 -167.47591863 276.45390291 -165.89810181 275.71479797 C-164.83974625 275.22102913 -164.83974625 275.22102913 -163.76000977 274.71728516 C-163.1513356 274.4324527 -162.54266144 274.14762024 -161.9155426 273.85415649 C-159.63505898 272.83726974 -157.32281146 271.91545427 -155 271 C-156.08391022 270.9189653 -157.16782043 270.8379306 -158.28457642 270.75444031 C-168.5528652 269.98549485 -178.82033397 269.20631285 -189.0871067 268.41737652 C-194.36401907 268.01220283 -199.641146 267.61050665 -204.91894531 267.21704102 C-210.02247302 266.83643405 -215.12519686 266.44632272 -220.22751999 266.04990578 C-222.16387133 265.90108812 -224.10047904 265.75556451 -226.03734207 265.61356163 C-262.43806069 262.93689926 -262.43806069 262.93689926 -276 248.40625 C-286.59269855 235.66190956 -289.24164503 221.44931427 -288.22753906 205.27783203 C-287.07248998 193.71494796 -280.41315336 181.94471498 -272 174 C-258.94419789 163.46608787 -246.5162256 160.55758296 -230 162 C-223.10365508 163.1195475 -216.43528211 165.19980545 -209.75 167.1875 C-207.87066907 167.72621353 -205.99060354 168.26237008 -204.10986328 168.79614258 C-200.14653135 169.92358092 -196.18701685 171.06329004 -192.22949219 172.2109375 C-185.75383333 174.0808562 -179.25836628 175.87509135 -172.7578125 177.65625 C-171.134198 178.10149773 -171.134198 178.10149773 -169.4777832 178.55574036 C-167.33065699 179.14432673 -165.18348154 179.73273354 -163.03625488 180.32095337 C-157.99913144 181.70170327 -152.96351287 183.08774423 -147.9296875 184.48046875 C-147.05160431 184.721604 -146.17352112 184.96273926 -145.26882935 185.21118164 C-144.46839203 185.43306152 -143.66795471 185.65494141 -142.84326172 185.88354492 C-142.145466 186.07607346 -141.44767029 186.26860199 -140.72872925 186.46696472 C-139 187 -139 187 -137 188 C-137.0309375 186.39125 -137.0309375 186.39125 -137.0625 184.75 C-137 181 -137 181 -136.31689453 178.99951172 C-135.76935536 176.93127994 -135.76935536 176.93127994 -137.12060547 175.13720703 C-139.01096622 173.10310064 -140.92245374 171.09965056 -142.875 169.125 C-143.51953125 168.41085938 -144.1640625 167.69671875 -144.828125 166.9609375 C-146.81347716 164.93634913 -148.50768511 163.35900792 -151 162 C-153.61681519 162.02457476 -155.58010812 162.50126855 -158.04223633 163.36694336 C-160 164 -160 164 -162.8125 163.4375 C-165.69656808 161.54225526 -167.24112866 159.99659562 -169 157 C-169.54318961 153.1373183 -169.23917206 149.71751617 -168 146 C-170.39622028 143.45902664 -172.81997517 140.94613007 -175.25 138.4375 C-175.93191406 137.71369141 -176.61382812 136.98988281 -177.31640625 136.24414062 C-177.98027344 135.56416016 -178.64414063 134.88417969 -179.328125 134.18359375 C-179.9355957 133.54993896 -180.54306641 132.91628418 -181.16894531 132.26342773 C-182.90875186 130.7597522 -182.90875186 130.7597522 -184.99511719 131.26977539 C-185.98753418 131.63123657 -185.98753418 131.63123657 -187 132 C-193.58071171 132.87742823 -193.58071171 132.87742823 -197.015625 130.75390625 C-199.14468144 128.93917901 -201.07121509 127.02616046 -203 125 C-203.69480469 124.31292969 -204.38960938 123.62585938 -205.10546875 122.91796875 C-213.72018528 113.94767293 -217.76558966 103.10105858 -218.3125 90.75 C-217.87589421 76.97266177 -212.99619237 62.77405476 -203 53 C-189.85372645 41.48667552 -175.48466816 36.94574811 -158 38 C-146.30710661 39.61128367 -135.71265772 44.86241105 -128.171875 54.0546875 C-123.49884493 60.39185418 -119.09882113 66.91196471 -114.71435547 73.45068359 C-111.95976221 77.54687596 -109.16640036 81.61634353 -106.375 85.6875 C-105.29159707 87.27078572 -104.20826289 88.85411847 -103.125 90.4375 C-99.32809702 95.98322283 -95.52132373 101.52212914 -91.7109375 107.05859375 C-89.79653541 109.84043737 -87.88561899 112.62464156 -85.9765625 115.41015625 C-85.47850098 116.13630127 -84.98043945 116.86244629 -84.46728516 117.6105957 C-83.51575879 118.99798764 -82.56487298 120.3858192 -81.61474609 121.77416992 C-80.97013428 122.71353394 -80.97013428 122.71353394 -80.3125 123.671875 C-79.93738281 124.2194043 -79.56226563 124.76693359 -79.17578125 125.33105469 C-77.82304889 127.25117063 -76.41220165 129.1233283 -75 131 C-75.10022461 129.985392 -75.20044922 128.970784 -75.30371094 127.9254303 C-76.25417231 118.29248158 -77.19583158 108.65870619 -78.12921143 99.02408695 C-78.60916971 94.07267046 -79.09206226 89.12157929 -79.58203125 84.17114258 C-80.05610114 79.38017993 -80.5219794 74.58848081 -80.98254395 69.79620171 C-81.15829985 67.98180997 -81.33684534 66.16768589 -81.51843262 64.35386848 C-82.4099379 55.43101633 -83.15350269 46.56418896 -83.18359375 37.59155273 C-83.1869574 36.90381051 -83.19032104 36.21606829 -83.19378662 35.50748539 C-83.09155807 23.23742157 -77.51761652 12.99101366 -69.296875 4.13671875 C-50.11421253 -13.70837712 -21.10776027 -15.1975874 0 0 Z " fill="#010101" transform="translate(288,13)"/>
<path d="M0 0 C14.16843748 10.9493652 23.53096461 25.8645259 27.04296875 43.47265625 C29.69914069 64.3865153 26.05852003 83.16771248 13.29296875 100.28515625 C3.73931071 111.98734438 -7.04375539 119.52818292 -21.33203125 124.59765625 C-22.0593042 124.85877197 -22.78657715 125.1198877 -23.53588867 125.38891602 C-29.94093675 127.52224245 -35.7901772 128.1078569 -42.51953125 128.03515625 C-43.52693359 128.02613281 -44.53433594 128.01710938 -45.57226562 128.0078125 C-64.25161309 127.57757801 -80.55783236 120.46910381 -93.75 107.30859375 C-103.37497795 97.20309497 -110.1533814 85.2658506 -113.33203125 71.59765625 C-113.51507813 70.84355469 -113.698125 70.08945312 -113.88671875 69.3125 C-116.83841268 51.31752384 -112.97600248 31.62748707 -102.39453125 16.78515625 C-101.05337311 15.04588066 -99.70038923 13.31561468 -98.33203125 11.59765625 C-97.86152344 10.96214844 -97.39101562 10.32664063 -96.90625 9.671875 C-73.69572103 -20.11154713 -28.85213149 -21.21062231 0 0 Z " fill="#FECC68" transform="translate(299.33203125,205.40234375)"/>
<path d="M0 0 C4.07346033 3.76011723 6.94957078 8.21016574 10.0546875 12.78125 C10.74820313 13.78961914 11.44171875 14.79798828 12.15625 15.83691406 C17.91031205 24.23214243 23.56463376 32.69544774 29.16137695 41.19628906 C32.87162881 46.8139616 36.72334426 52.29118966 40.70654297 57.71826172 C44.26895277 62.64103526 47.65430668 67.6833374 51.0546875 72.71875 C52.5412633 74.91433566 54.02824292 77.10964797 55.515625 79.3046875 C56.23331055 80.36397461 56.95099609 81.42326172 57.69042969 82.51464844 C60.9349892 87.28496939 64.21473168 92.03119428 67.51879883 96.76049805 C69.48618618 99.59834107 71.31796486 102.37928185 72.7421875 105.53125 C70.7621875 106.85125 68.7821875 108.17125 66.7421875 109.53125 C63.73536586 108.2041514 61.87046925 106.84079211 59.75390625 104.3359375 C59.21548096 103.70574707 58.67705566 103.07555664 58.12231445 102.42626953 C57.56374756 101.75966309 57.00518066 101.09305664 56.4296875 100.40625 C55.85371826 99.73062012 55.27774902 99.05499023 54.68432617 98.35888672 C53.03191474 96.42054822 51.38674788 94.47624884 49.7421875 92.53125 C48.35075365 90.90248128 46.9560963 89.27644414 45.5546875 87.65625 C45.04550781 87.06070313 44.53632813 86.46515625 44.01171875 85.8515625 C41.86245438 83.61632755 40.57760462 83.51572331 37.4296875 83.21875 C33.75308059 83.30616648 33.75308059 83.30616648 30.8046875 84.96875 C28.23967544 88.15558316 27.82602163 90.02151901 28.08203125 94.05859375 C29.45018258 99.18308954 33.24793404 102.69234331 36.7421875 106.53125 C38.35323789 108.37157507 39.95269704 110.22132201 41.54785156 112.07543945 C42.62235902 113.32211888 43.70360037 114.56303093 44.79199219 115.79760742 C47.02543423 118.35811501 48.65640205 120.27389365 49.7421875 123.53125 C48.33772915 125.7949064 46.5453962 127.5521185 44.7421875 129.53125 C41.01288992 126.34580832 37.29870013 123.146821 33.6171875 119.90625 C32.94429688 119.32488281 32.27140625 118.74351562 31.578125 118.14453125 C30.09234028 116.83893744 28.65837196 115.47452985 27.2421875 114.09375 C23.52192371 111.76858513 21.10001609 112.11621871 16.7421875 112.53125 C14.55105527 113.49329212 14.55105527 113.49329212 12.7421875 114.53125 C12.30463135 114.03608887 11.8670752 113.54092773 11.41625977 113.03076172 C9.40863937 110.7938573 7.35832366 108.6009477 5.3046875 106.40625 C4.61697266 105.62636719 3.92925781 104.84648437 3.22070312 104.04296875 C1.14435068 101.86038432 -0.6688042 100.07740428 -3.2578125 98.53125 C-5.9175144 98.50282814 -7.82342376 98.96762989 -10.31542969 99.87182617 C-12.2578125 100.53125 -12.2578125 100.53125 -15.0703125 99.96875 C-17.95438058 98.07350526 -19.49894116 96.52784562 -21.2578125 93.53125 C-21.80100211 89.6685683 -21.49698456 86.24876617 -20.2578125 82.53125 C-25.5378125 77.25125 -30.8178125 71.97125 -36.2578125 66.53125 C-35.5978125 64.55125 -34.9378125 62.57125 -34.2578125 60.53125 C-33.50720401 57.61742271 -33.50720401 57.61742271 -34.2578125 54.53125 C-36.33850475 51.62061871 -38.77052425 49.09610441 -41.2578125 46.53125 C-47.98202142 39.39681083 -49.98121104 32.58554748 -49.734375 22.9140625 C-48.58026935 14.72180436 -44.20794146 7.46318542 -38.12109375 1.9296875 C-27.16478333 -6.29328761 -11.63285722 -7.56739501 0 0 Z " fill="#FDFDFD" transform="translate(140.2578125,76.46875)"/>
<path d="M0 0 C0.30703857 0.67579102 0.61407715 1.35158203 0.93041992 2.04785156 C2.33607653 5.12155402 3.76151146 8.1856806 5.1875 11.25 C5.67025391 12.31347656 6.15300781 13.37695312 6.65039062 14.47265625 C7.13056641 15.49746094 7.61074219 16.52226562 8.10546875 17.578125 C8.54012451 18.52075195 8.97478027 19.46337891 9.42260742 20.43457031 C11.26687309 23.43403535 13.04963243 25.08892535 16 27 C18.20180089 27.47581004 18.20180089 27.47581004 20.3125 27.25 C22.1378125 27.12625 22.1378125 27.12625 24 27 C25.27182393 29.37447413 26.54248424 31.74955897 27.8125 34.125 C28.16892578 34.79015625 28.52535156 35.4553125 28.89257812 36.140625 C30.98942672 40.06500218 33.02980095 44.00988078 35 48 C36.60875 47.938125 36.60875 47.938125 38.25 47.875 C43.39534884 48.04651163 43.39534884 48.04651163 46 50 C48.07805726 52.36468584 48.97169051 54.05246486 49.06640625 57.22265625 C48.5672517 63.48755523 48.5672517 63.48755523 46.3828125 65.4609375 C44.74847956 66.9255846 44.74847956 66.9255846 45.0546875 69.1796875 C46.60712734 73.81134684 48.98117159 78.00184024 51.29296875 82.29296875 C52.26654432 84.15986098 53.14063988 86.07785636 54 88 C53 91 53 91 50.9375 92.75 C48.82849854 95.19916299 48.368191 96.59875293 48.52734375 99.81640625 C49.15400051 102.7114569 50.30184845 105.23056502 51.5 107.9375 C54.8633926 115.61979447 54.82665487 121.01034054 51.90625 128.90625 C48.15658263 137.56927462 41.7548497 143.74313423 33.11328125 147.2734375 C24.47977228 150.24170491 15.58844585 150.08394143 7.25390625 146.2578125 C-0.26487105 142.06189172 -4.09065768 136.85457206 -6.75146484 128.69580078 C-7.46558459 126.11966452 -8.11721586 123.53481008 -8.75 120.9375 C-9.26805186 118.88406984 -9.78629109 116.83068695 -10.3046875 114.77734375 C-10.57764648 113.68276855 -10.85060547 112.58819336 -11.13183594 111.46044922 C-12.51422508 105.95033008 -13.94410464 100.45258293 -15.3692627 94.95339966 C-16.22537197 91.64669566 -17.07740697 88.33894251 -17.9296875 85.03125 C-19.62064123 78.47070147 -21.31295751 71.9105061 -23.00634766 65.35058594 C-23.66538841 62.79668157 -24.32392238 60.24264638 -24.98193359 57.68847656 C-26.54765604 51.6130706 -28.11828363 45.53910649 -29.70532227 39.46923828 C-30.45772376 36.59040154 -31.20748305 33.7108796 -31.95703125 30.83129883 C-32.31638328 29.45383658 -32.67704119 28.07671429 -33.0390625 26.69995117 C-33.53972433 24.79561477 -34.03560179 22.89002246 -34.53125 20.984375 C-34.81548828 19.89866211 -35.09972656 18.81294922 -35.39257812 17.69433594 C-36 15 -36 15 -36 12 C-31.545 11.505 -31.545 11.505 -27 11 C-26.74831055 11.6798999 -26.49662109 12.3597998 -26.23730469 13.06030273 C-25.07785472 16.18715119 -23.91395817 19.31232705 -22.75 22.4375 C-22.35425781 23.50677734 -21.95851563 24.57605469 -21.55078125 25.67773438 C-19.73845359 30.53536672 -17.90158123 35.3807836 -15.890625 40.16015625 C-15.59704102 40.85890869 -15.30345703 41.55766113 -15.00097656 42.27758789 C-13.97432006 44.33538573 -13.97432006 44.33538573 -11 46 C-6.49817197 46.32333572 -2.97886692 45.74580337 0.625 43 C3.36622019 37.01915595 1.10596763 30.89227128 -1.06640625 25.01171875 C-1.88789217 22.89951414 -2.72013932 20.79146671 -3.5625 18.6875 C-4.40310578 16.56876526 -5.23800157 14.4477537 -6.06640625 12.32421875 C-6.43709229 11.39697998 -6.80777832 10.46974121 -7.18969727 9.5144043 C-8 7 -8 7 -8 3 C-5.12645755 0.82542733 -3.63563409 0 0 0 Z " fill="#FCFCFC" transform="translate(305,340)"/>
<path d="M0 0 C5.24164252 4.15716476 8.65190093 10.08070279 10.75 16.375 C10.96413534 23.2144309 10.43390938 29.88861497 9.75610352 36.69042969 C9.59757904 38.33358406 9.59757904 38.33358406 9.43585205 40.00993347 C9.08778692 43.60600824 8.73349329 47.20143793 8.37890625 50.796875 C8.13437315 53.30549184 7.89015074 55.81413898 7.64622498 58.32281494 C7.13526926 63.56818013 6.62147252 68.81325886 6.10522461 74.05810547 C5.50921171 80.11363955 4.91805601 86.16963241 4.32959992 92.22590518 C3.7617898 98.06900654 3.19104492 103.91181735 2.61887932 109.75449371 C2.37622124 112.23436391 2.1342196 114.71429843 1.89288521 117.19429779 C1.55554937 120.6555019 1.21489455 124.11636326 0.87329102 127.57714844 C0.77402817 128.60166611 0.67476532 129.62618378 0.57249451 130.68174744 C0.47856415 131.62641373 0.38463379 132.57108002 0.28785706 133.54437256 C0.20766107 134.36137508 0.12746508 135.17837761 0.04483891 136.02013779 C-0.26616696 138.50412462 -0.73055646 140.92684223 -1.25 143.375 C-4.22 143.045 -7.19 142.715 -10.25 142.375 C-10.26401855 140.82389526 -10.26401855 140.82389526 -10.27832031 139.24145508 C-10.31829421 135.39255224 -10.38407249 131.54444254 -10.45751953 127.69604492 C-10.48568649 126.03273737 -10.50692233 124.36929704 -10.52099609 122.70581055 C-10.54248592 120.30969475 -10.58916288 117.91516816 -10.640625 115.51953125 C-10.64185364 114.7797554 -10.64308228 114.03997955 -10.64434814 113.27778625 C-10.78229153 108.37843581 -11.75383333 105.81513312 -15.25 102.375 C-18.10324437 100.94837781 -20.08454549 101.06466132 -23.25 101.375 C-25.94990662 103.17493774 -27.7918865 104.458773 -29.25 107.375 C-29.40660883 109.99880313 -29.5082908 112.60024852 -29.56640625 115.2265625 C-29.58718735 116.00059418 -29.60796844 116.77462585 -29.62937927 117.57211304 C-29.69483448 120.04798392 -29.75374087 122.52396202 -29.8125 125 C-29.85568907 126.67709448 -29.89930348 128.35417807 -29.94335938 130.03125 C-30.05051171 134.14572308 -30.15179045 138.26030414 -30.25 142.375 C-33.22 142.705 -36.19 143.035 -39.25 143.375 C-41.10692609 130.5200603 -42.37939981 117.62074633 -43.6328125 104.6953125 C-43.85404855 102.42901575 -44.07539453 100.16272972 -44.29684448 97.89645386 C-44.75751891 93.17496153 -45.21611055 88.45327245 -45.67333984 83.73144531 C-46.25808152 77.69568211 -46.8492521 71.66056768 -47.44211006 65.625597 C-47.89979944 60.95721315 -48.3534947 56.28844747 -48.80605698 51.61956406 C-49.02237752 49.39399827 -49.24006283 47.16856468 -49.4591713 44.94327164 C-49.76485226 41.83382376 -50.06498696 38.72388683 -50.36376953 35.61376953 C-50.49931747 34.25296516 -50.49931747 34.25296516 -50.63760376 32.8646698 C-51.7150592 21.49549833 -51.60363638 13.90545457 -45.125 4.1875 C-32.88619574 -9.37339731 -14.43394187 -9.64088717 0 0 Z " fill="#FCFCFC" transform="translate(276.25,29.625)"/>
<path d="M0 0 C2.06925866 4.38195952 2.06925866 4.38195952 1.77294922 7.02612305 C0.79887957 9.51360033 -0.1149848 10.04761426 -2.4296875 11.33203125 C-3.13802734 11.73486328 -3.84636719 12.13769531 -4.57617188 12.55273438 C-5.33478516 12.96845703 -6.09339844 13.38417969 -6.875 13.8125 C-8.4252805 14.69260037 -9.97475878 15.57411534 -11.5234375 16.45703125 C-12.28495117 16.88709473 -13.04646484 17.3171582 -13.83105469 17.76025391 C-16.76758444 19.43874311 -19.63714612 21.19844156 -22.5 23 C-23.3559375 23.53625 -24.211875 24.0725 -25.09375 24.625 C-27.1270639 25.86764048 -27.1270639 25.86764048 -28 28 C-28.0952699 29.47668337 -28.12985959 30.95775457 -28.125 32.4375 C-28.12757813 33.21996094 -28.13015625 34.00242187 -28.1328125 34.80859375 C-28.08382548 37.17895347 -28.08382548 37.17895347 -27 40 C-22.47333982 41.50888673 -18.30993284 41.90390948 -13.84130859 40.15527344 C-11.56897098 38.97188126 -9.37858039 37.70268419 -7.1875 36.375 C-5.61085463 35.458028 -4.03403191 34.54136085 -2.45703125 33.625 C-1.6985791 33.17640625 -0.94012695 32.7278125 -0.15869141 32.265625 C2.73553359 30.56876203 5.67242614 28.96808784 8.625 27.375 C9.48351562 26.90835937 10.34203125 26.44171875 11.2265625 25.9609375 C11.81179687 25.64382813 12.39703125 25.32671875 13 25 C18 30.75 18 30.75 18 33 C15.57719916 34.85543608 13.14378893 36.59534302 10.625 38.3125 C9.05399327 39.40134278 7.4837034 40.49122045 5.9140625 41.58203125 C4.69251465 42.42822021 4.69251465 42.42822021 3.44628906 43.29150391 C-0.40359119 45.98027257 -4.201234 48.73971864 -8 51.5 C-14.4998989 56.21134082 -21.03865268 60.86298584 -27.60546875 65.48046875 C-32.76566927 69.11454712 -37.88918976 72.79684915 -43 76.5 C-50.96753251 82.27045377 -58.98105243 87.97179001 -67.03662109 93.61865234 C-68.93260641 94.95258481 -70.82055703 96.29719444 -72.70703125 97.64453125 C-73.84620101 98.45073729 -74.98551515 99.25673937 -76.125 100.0625 C-77.58292969 101.10083984 -77.58292969 101.10083984 -79.0703125 102.16015625 C-86.0855116 106.56570129 -91.8546263 107.97744484 -100 107 C-108.92020428 104.87995145 -115.53250063 99.74010739 -120.89453125 92.41015625 C-125.76708414 84.09144184 -126.4795778 75.39531905 -125 66 C-122.95946909 58.90289032 -119.10189404 54.14525775 -113 50 C-108.00139267 47.36386682 -102.85550181 45.09347444 -97.6875 42.8125 C-96.14351898 42.12038976 -94.60007434 41.42708186 -93.05712891 40.73266602 C-89.76280652 39.2518676 -86.46571848 37.77748245 -83.16650391 36.30761719 C-75.27397114 32.78788056 -67.40738845 29.21074347 -59.53656006 25.64282227 C-56.88092087 24.44018135 -54.22413121 23.24012236 -51.56689453 22.04101562 C-43.0683444 18.20548938 -34.57747559 14.35478444 -26.10546875 10.4609375 C-24.5594525 9.75193648 -23.01339244 9.043031 -21.46728516 8.33422852 C-18.59567858 7.01775125 -15.72742669 5.69430857 -12.86083984 4.36694336 C-11.5857497 3.78208898 -10.31052984 3.19751727 -9.03515625 2.61328125 C-7.38592163 1.85204956 -7.38592163 1.85204956 -5.70336914 1.07543945 C-3 0 -3 0 0 0 Z " fill="#FCFCFC" transform="translate(170,291)"/>
<path d="M0 0 C4.46911736 0.64897545 8.26988968 2.34383351 12.31640625 4.25390625 C13.0329689 4.58643906 13.74953156 4.91897186 14.48780823 5.26158142 C16.03744263 5.98108157 17.58600627 6.70289149 19.13360596 7.42675781 C23.29061756 9.37056161 27.45581975 11.29663569 31.62109375 13.22265625 C32.47868286 13.61953644 33.33627197 14.01641663 34.21984863 14.42532349 C43.14572942 18.54659188 52.13138341 22.52932257 61.125 26.5 C71.74989694 31.1969166 82.35225779 35.91501277 92.80078125 40.99609375 C95.87093718 42.48463199 98.9733562 43.86944778 102.10546875 45.22265625 C118.82173305 52.55095835 118.82173305 52.55095835 123 61 C123.55494141 62.11955078 123.55494141 62.11955078 124.12109375 63.26171875 C126.78365456 71.55707489 126.14970219 81.78012382 122.5 89.625 C117.49765426 98.17701965 111.08432571 102.49443033 102 106 C101.01 106.495 101.01 106.495 100 107 C88.47832033 108.63120555 80.35933957 103.61971264 71.42260742 96.94628906 C70.08319881 95.92826604 68.74749358 94.90535452 67.4152832 93.87792969 C62.23632821 89.88390205 56.92346965 86.15379232 51.5 82.5 C44.86870734 78.02033247 38.42117935 73.37148284 32.05859375 68.51953125 C26.20988529 64.08939622 20.16695183 59.97717853 14.08837891 55.87084961 C8.05078644 51.77166803 2.19893398 47.46996948 -3.609375 43.05371094 C-8.2834602 39.50727284 -13.04101944 36.14068769 -18 33 C-16.55140574 29.61994673 -14.62669829 27.5412772 -12 25 C-11.22285645 25.44915771 -10.44571289 25.89831543 -9.64501953 26.36108398 C-6.7641017 28.0257724 -3.88288566 29.68994224 -1.00146484 31.35375977 C0.24605126 32.07425469 1.4934478 32.79495668 2.74072266 33.51586914 C4.53256408 34.55148791 6.32483284 35.58636357 8.1171875 36.62109375 C9.19597168 37.2442749 10.27475586 37.86745605 11.38623047 38.50952148 C16.20309067 41.2562926 19.82617398 41.41760869 25.375 40.6875 C25.91125 40.460625 26.4475 40.23375 27 40 C27.8923441 37.32296769 28.25160342 35.40616916 28.375 32.625 C28.42398438 31.87476563 28.47296875 31.12453125 28.5234375 30.3515625 C27.73314234 26.801132 25.81654688 25.10007626 23 23 C17.90233375 19.83430879 12.63337947 16.97183282 7.375 14.08398438 C6.31796875 13.48779297 5.2609375 12.89160156 4.171875 12.27734375 C3.2034668 11.74359131 2.23505859 11.20983887 1.23730469 10.65991211 C-1 9 -1 9 -1.88183594 6.96704102 C-2.0437224 4.27216652 -1.13844009 2.41081431 0 0 Z " fill="#FCFCFC" transform="translate(342,291)"/>
<path d="M0 0 C2.91985181 0.68088981 5.35122304 1.58101234 8 3 C7.41010964 7.19097877 6.43668571 10.89109042 4.93359375 14.84375 C4.53076172 15.92527344 4.12792969 17.00679688 3.71289062 18.12109375 C2.8621421 20.37499108 2.00796954 22.62759893 1.15039062 24.87890625 C0.54807617 26.50119141 0.54807617 26.50119141 -0.06640625 28.15625 C-0.43709229 29.13400391 -0.80777832 30.11175781 -1.18969727 31.11914062 C-2.07258237 34.25805121 -2.27483662 36.75495472 -2 40 C-0.20006226 42.69990662 1.083773 44.5418865 4 46 C8.69793246 46.417594 11.25630832 45.88149251 15 43 C16.67132149 39.8929455 16.67132149 39.8929455 17.859375 36.21484375 C18.09408508 35.55795059 18.32879517 34.90105743 18.57061768 34.22425842 C19.3135311 32.1340498 20.03214166 30.03642919 20.75 27.9375 C21.24707409 26.5222151 21.7457556 25.10749365 22.24609375 23.69335938 C23.15969013 21.10993657 24.06163782 18.52358767 24.95605469 15.93334961 C26 13 26 13 27 11 C29.97 11.33 32.94 11.66 36 12 C34.96443235 19.8826791 33.14857571 27.38017272 30.96044922 35.00244141 C29.46963079 40.22303234 28.14330577 45.45664546 26.9375 50.75 C25.49972468 57.04440478 23.81420047 63.2247486 21.99609375 69.421875 C20.90441159 73.34336855 19.96939378 77.28267946 19.0625 81.25 C17.55339104 87.83102088 15.84778527 94.33143209 13.99853516 100.82470703 C12.76113001 105.19085869 11.59228326 109.56677886 10.48828125 113.96875 C10.23030762 114.9901709 9.97233398 116.0115918 9.70654297 117.06396484 C9.20708155 119.05197987 8.71479824 121.04181713 8.23095703 123.03369141 C5.58813076 133.5004572 2.4328244 140.23972921 -7 146 C-14.79592344 149.90488528 -23.51037206 150.28947443 -31.8125 147.75 C-40.30064057 144.49344873 -47.58351458 138.66475775 -51.375 130.3125 C-53.9315142 124.05459784 -55.37411779 117.99983983 -53.11279297 111.41748047 C-51.79867621 108.3816004 -50.38922404 105.41006696 -48.9375 102.4375 C-48.40310303 101.3119873 -47.86870605 100.18647461 -47.31811523 99.02685547 C-45.86397176 95.97497002 -44.39611608 92.93064792 -42.91833496 89.89019775 C-41.99940792 87.99878133 -41.08366518 86.10585664 -40.16894531 84.21240234 C-37.66571269 79.03155599 -35.16014185 73.85187876 -32.64257812 68.67797852 C-27.9363024 58.99730734 -23.37870695 49.25572136 -18.87255859 39.47998047 C-12.75297018 26.23762352 -6.38128612 13.11781016 0 0 Z " fill="#FCFCFC" transform="translate(207,340)"/>
<path d="M0 0 C7.97601301 4.72295634 12.61463967 11.79584436 15.5859375 20.53125 C16.86720573 28.82526112 15.93200277 36.30511647 11.5859375 43.53125 C7.27739258 48.82740967 2.24075406 53.48597968 -2.6640625 58.21875 C-3.97659358 59.50971367 -5.2878028 60.80202272 -6.59765625 62.09570312 C-11.37315604 66.78909801 -16.13600489 71.45615793 -21.21777344 75.81958008 C-26.23091731 80.17136041 -30.86872521 84.88016107 -35.5390625 89.59375 C-36.4946562 90.55376375 -37.45055434 91.51347453 -38.40673828 92.47290039 C-41.412038 95.48951369 -44.41335862 98.51006596 -47.4140625 101.53125 C-50.89699261 105.03795151 -54.38162752 108.54292466 -57.87054443 112.04367065 C-59.25059383 113.4301034 -60.62753994 114.81962298 -62.00439453 116.20922852 C-66.97290855 121.1969495 -72.03492369 125.98771472 -77.4140625 130.53125 C-82.2890625 125.78125 -82.2890625 125.78125 -83.4140625 123.53125 C-78.01004682 116.87296896 -72.54405379 110.27864933 -66.95776367 103.77270508 C-63.35527077 99.55153022 -61.9806635 97.28108894 -62.07421875 91.57421875 C-62.31807767 89.21714712 -62.31807767 89.21714712 -64.4765625 86.53125 C-67.30430053 84.34346998 -67.30430053 84.34346998 -70.7265625 83.78125 C-79.13754147 85.49195759 -84.13386566 93.39563799 -89.2265625 99.796875 C-92.17272751 103.47958127 -95.27710196 107.01099525 -98.4140625 110.53125 C-101.83965334 109.32766403 -103.94664859 108.17232354 -106.4140625 105.53125 C-105.61848958 104.36848958 -104.82291667 103.20572917 -104.02734375 102.04296875 C-103.50769043 101.28346924 -102.98803711 100.52396973 -102.45263672 99.74145508 C-101.28631883 98.03684932 -100.11997707 96.3322599 -98.95361328 94.62768555 C-95.98285212 90.28601788 -93.01240648 85.94413544 -90.04296875 81.6015625 C-84.56448937 73.59052445 -79.07926919 65.58426776 -73.57763672 57.58911133 C-70.01440638 52.40909903 -66.46300873 47.22105645 -62.9140625 42.03125 C-61.2727397 39.63224482 -59.63127982 37.23333352 -57.98974609 34.83447266 C-56.96886218 33.34221687 -55.94833186 31.84971909 -54.92822266 30.35693359 C-52.20602289 26.37433584 -49.47056482 22.40142119 -46.72265625 18.43652344 C-45.3943616 16.50256608 -44.09092565 14.55338569 -42.7890625 12.6015625 C-32.31919795 -2.87769303 -17.55411256 -8.47115351 0 0 Z " fill="#FCFCFC" transform="translate(405.4140625,75.46875)"/>
<path d="M0 0 C15.43523175 4.53502035 30.94060281 8.7828124 46.51831055 12.79882812 C52.44197761 14.33499622 58.3038701 15.99210574 64.13671875 17.84765625 C68.29661984 19.15678673 72.47889546 20.38384835 76.6640625 21.609375 C77.42509277 21.83246338 78.18612305 22.05555176 78.97021484 22.28540039 C80.76379536 22.81074884 82.55764877 23.33516548 84.3515625 23.859375 C83.82887784 26.62213677 83.24286663 29.1854626 82.3515625 31.859375 C75.64688765 32.07609176 69.7551598 31.33004836 63.2265625 29.859375 C53.63892041 27.4634137 53.63892041 27.4634137 44.0390625 28.671875 C42.05088772 29.91905492 42.05088772 29.91905492 40.3515625 32.859375 C39.88509847 37.89718653 40.26975848 40.82779087 43.3515625 44.859375 C45.75482752 45.97924014 45.75482752 45.97924014 48.6640625 46.421875 C49.7984375 46.64617187 50.9328125 46.87046875 52.1015625 47.1015625 C53.51806111 47.35510737 54.93474966 47.607592 56.3515625 47.859375 C58.26840059 48.21522366 60.18505463 48.57206463 62.1015625 48.9296875 C67.51383935 49.93179927 72.93125493 50.90170631 78.3515625 51.859375 C78.3515625 54.829375 78.3515625 57.799375 78.3515625 60.859375 C70.29755944 60.97183116 62.37508331 60.66681374 54.3515625 59.984375 C52.0860094 59.79989615 49.82038128 59.61633673 47.5546875 59.43359375 C46.38486328 59.33868652 45.21503906 59.2437793 44.00976562 59.14599609 C36.51601635 58.55885904 29.01554576 58.05855335 21.515625 57.55712891 C19.84886719 57.44183838 19.84886719 57.44183838 18.1484375 57.32421875 C17.17229492 57.258396 16.19615234 57.19257324 15.19042969 57.12475586 C12.3515625 56.859375 12.3515625 56.859375 9.28833008 56.34790039 C6.68098391 55.91417359 4.20342482 55.6812471 1.56640625 55.578125 C0.70595703 55.54074219 -0.15449219 55.50335938 -1.04101562 55.46484375 C-2.82486371 55.39437718 -4.60871792 55.32406535 -6.39257812 55.25390625 C-7.25173828 55.21652344 -8.11089844 55.17914063 -8.99609375 55.140625 C-9.76961182 55.11033203 -10.54312988 55.08003906 -11.34008789 55.04882812 C-13.6484375 54.859375 -13.6484375 54.859375 -16.0456543 54.36425781 C-19.03175344 53.78502012 -21.90648911 53.63032517 -24.9453125 53.5 C-26.75515625 53.40332031 -26.75515625 53.40332031 -28.6015625 53.3046875 C-31.11647055 53.1753198 -33.63217481 53.06053956 -36.1484375 52.9609375 C-45.08921472 52.44731838 -51.02738384 50.70097383 -57.91796875 44.97265625 C-64.85199958 36.88002787 -67.50553723 29.10210006 -67.15625 18.390625 C-65.77659516 8.79671751 -60.28426876 0.68782601 -52.6484375 -5.140625 C-36.96905293 -15.12099275 -16.08488361 -4.73652971 0 0 Z " fill="#FCFCFC" transform="translate(86.6484375,204.140625)"/>
<path d="M0 0 C8.20824827 4.90638427 13.82904538 12.25961323 16.41796875 21.4453125 C17.81034701 30.81900189 15.93597807 40.13256253 10.6875 48.05859375 C4.78895025 55.25223426 -1.73481209 58.31894198 -10.86495304 59.29450417 C-15.16038405 59.68250992 -19.45950733 59.99498392 -23.76171875 60.296875 C-25.6572646 60.44188751 -27.55270007 60.58834925 -29.44802856 60.73617554 C-34.43756858 61.1214069 -39.42836039 61.4869585 -44.41967773 61.84832764 C-49.40308531 62.21253979 -54.38506045 62.59530191 -59.3671875 62.9765625 C-67.90390301 63.62741006 -76.44174346 64.26141831 -84.98044968 64.8855629 C-90.3566909 65.27928643 -95.73190902 65.68427372 -101.10644531 66.10058594 C-102.35112579 66.19608734 -103.59580627 66.29158875 -104.87820435 66.38998413 C-107.08191361 66.55949126 -109.28544816 66.73129681 -111.48873901 66.90615845 C-117.20659765 67.34134724 -122.8473358 67.51978906 -128.58203125 67.4453125 C-128.58203125 64.4753125 -128.58203125 61.5053125 -128.58203125 58.4453125 C-127.63884033 58.27926514 -126.69564941 58.11321777 -125.72387695 57.94213867 C-122.20897276 57.32056116 -118.69659793 56.68558403 -115.18481445 56.04663086 C-113.66756324 55.77248729 -112.14965902 55.5019316 -110.63110352 55.23510742 C-108.44233568 54.84986707 -106.25627843 54.45157793 -104.0703125 54.05078125 C-103.39615799 53.93502243 -102.72200348 53.81926361 -102.02742004 53.69999695 C-98.00057861 52.94594392 -94.86339894 51.93186937 -91.58203125 49.4453125 C-90.38448308 45.85266798 -90.25108167 43.21813776 -90.58203125 39.4453125 C-92.4491163 37.08033811 -93.90264556 35.78500535 -96.58203125 34.4453125 C-104.31919811 34.49970383 -111.96214581 35.93686539 -119.52954102 37.42871094 C-123.96634354 38.27560856 -128.06380779 38.58115451 -132.58203125 38.4453125 C-133.83868103 35.53930989 -134.58203125 33.64926666 -134.58203125 30.4453125 C-125.42722726 27.44243049 -116.22833687 24.77576454 -106.89453125 22.3828125 C-99.94931788 20.60165896 -93.0743145 18.73414837 -86.23828125 16.56640625 C-71.83137648 12.14890447 -57.24311564 8.30442528 -42.64208984 4.58789062 C-37.64818024 3.30172581 -32.74264126 1.88975194 -27.85424805 0.24829102 C-18.03299278 -3.04443214 -9.67495171 -4.39910364 0 0 Z " fill="#FCFCFC" transform="translate(475.58203125,197.5546875)"/>
<path d="M0 0 C3.49406769 1.66762322 4.82670681 2.74006022 7 6 C7.34342312 10.25844672 7.43989287 12.93499621 5.8125 16.875 C3.60599495 19.46193695 2.3173813 20.2460497 -1 21 C-5.6054095 21 -7.43901415 20.48937063 -10.9375 17.4375 C-13.74495371 13.55743109 -13.74297224 10.68072512 -13 6 C-8.99198039 1.04271259 -6.32512692 -0.49608839 0 0 Z " fill="#030303" transform="translate(132,156)"/>
<path d="M0 0 C5.11780303 0.26022727 5.11780303 0.26022727 7.6875 2.1875 C9.74807757 4.53229516 10.64329374 6.23536515 10.7890625 9.375 C10.5411308 12.96410654 10.01903257 15.59650716 8.25 18.75 C4.15595096 21.04666166 0.25563558 21.01404473 -4.3125 20.1875 C-7.4375 18.25 -7.4375 18.25 -9.3125 15.1875 C-9.99719221 12.03221004 -10.04841379 9.33652647 -9.3125 6.1875 C-6.875 3.1875 -6.875 3.1875 -4.3125 1.1875 C-3.3125 0.1875 -3.3125 0.1875 0 0 Z " fill="#020202" transform="translate(343.3125,387.8125)"/>
</svg>
